<svg width="100" height="157" viewBox="0 0 100 157" fill="none" xmlns="http://www.w3.org/2000/svg">
<g clip-path="url(#clip0)">
<path d="M50.5068 0C50.505 0 50.5032 0 50.5014 0C47.2141 0.00267791 45.17 2.32919 45.1667 6.07322V8.40063C45.1685 10.615 45.885 12.3333 47.1504 13.3682C45.885 14.4033 45.1685 16.122 45.1667 18.3369V20.6643C45.1685 22.8786 45.885 24.597 47.1504 25.6318C45.885 26.667 45.1685 28.3856 45.1667 30.6006V32.928C45.17 36.6708 47.2141 38.9973 50.5014 39H50.5068C51.9921 39 53.2665 38.5111 54.1916 37.5861C55.2654 36.5119 55.8325 34.9025 55.8307 32.9327V30.5958C55.8325 28.6252 55.2654 27.0154 54.1916 25.9413C54.0821 25.8321 53.9672 25.7291 53.8482 25.6318C53.9672 25.5348 54.0821 25.4319 54.1916 25.3224C55.2654 24.2482 55.8325 22.6388 55.8307 20.6691V18.3324C55.8325 16.3615 55.2654 14.7521 54.1916 13.6779C54.0821 13.5684 53.9672 13.4655 53.8482 13.3685C53.9672 13.2712 54.0821 13.1682 54.1916 13.0587C55.2654 11.9846 55.8325 10.3751 55.8307 8.40569V6.06846C55.8325 4.09781 55.2654 2.48808 54.1916 1.41394C53.2665 0.488869 51.9924 0 50.5068 0ZM48.2136 6.07441C48.2162 3.04866 49.9378 3.04747 50.5038 3.04688H50.507C51.1855 3.04688 51.6859 3.21737 52.0367 3.56847C52.5194 4.05109 52.7848 4.93808 52.7839 6.06727V8.40658C52.7848 9.53458 52.5194 10.4216 52.0367 10.9042C52.0323 10.9089 52.0269 10.9128 52.0222 10.9173V9.82617H48.9753V10.8976C48.5513 10.4805 48.2148 9.73453 48.2136 8.39825V6.07441ZM48.9753 22.0898V23.1613C48.5513 22.7441 48.2148 21.9982 48.2136 20.6619V18.3381C48.2148 17.0018 48.5513 16.2559 48.9753 15.8387V16.834H52.0222V15.8191C52.0269 15.8238 52.0323 15.8274 52.037 15.8321C52.5197 16.3148 52.7848 17.2018 52.7839 18.3309V20.6703C52.7848 21.7982 52.5197 22.6852 52.037 23.1679C52.0323 23.1726 52.0269 23.1765 52.0222 23.1809V22.0898H48.9753ZM52.7839 32.9339C52.7848 34.0619 52.5197 34.9489 52.037 35.4315C51.6859 35.7826 51.1855 35.9531 50.507 35.9531C50.5059 35.9531 50.5047 35.9531 50.5038 35.9531C49.9378 35.9525 48.2162 35.9513 48.2136 32.9256V30.6018C48.2148 29.2655 48.5513 28.5195 48.9753 28.1024V29.0977H52.0222V28.0827C52.0269 28.0872 52.0323 28.0911 52.037 28.0958C52.5197 28.5784 52.7848 29.4654 52.7839 30.5946V32.9339ZM84.1667 8.40539V6.06846C84.1685 4.09781 83.6013 2.48808 82.5275 1.41394C81.6024 0.488869 80.3283 0 78.8427 0C78.8409 0 78.8391 0 78.8373 0C75.55 0.00267791 73.5059 2.32919 73.5026 6.07322V8.40063C73.5044 10.6426 74.2393 12.3758 75.5346 13.4063C74.2393 14.437 73.5044 16.1702 73.5026 18.4131V20.7405C73.5044 22.9283 74.2048 24.6312 75.4423 25.6699C74.2048 26.7087 73.5044 28.4118 73.5026 30.6006V32.928C73.5059 36.6708 75.55 38.9973 78.8373 39H78.8427C80.328 39 81.6024 38.5111 82.5275 37.5861C83.6013 36.5119 84.1685 34.9025 84.1667 32.9327V30.5958C84.1685 28.6252 83.6013 27.0154 82.5275 25.9413C82.432 25.8458 82.3317 25.7562 82.2288 25.6699C82.3317 25.5839 82.432 25.4941 82.5275 25.3986C83.6013 24.3244 84.1685 22.715 84.1667 20.7452V18.4086C84.1685 16.4377 83.6013 14.8282 82.5275 13.7541C82.4034 13.63 82.2728 13.5146 82.1365 13.4065C82.2728 13.2982 82.4034 13.1828 82.5275 13.0587C83.6013 11.9846 84.1685 10.3748 84.1667 8.40539ZM76.5495 6.07441C76.5522 3.04866 78.2738 3.04747 78.8397 3.04688H78.843C79.5214 3.04688 80.0219 3.21737 80.3727 3.56847C80.8553 4.05109 81.1207 4.93808 81.1198 6.06727V8.40658C81.1207 9.53458 80.8553 10.4216 80.3727 10.9042C80.3682 10.9089 80.3628 10.9128 80.3581 10.9173V9.90234H77.3112V10.8976C76.8872 10.4805 76.5507 9.73453 76.5495 8.39825V6.07441ZM77.3112 22.0898V23.2375C76.8872 22.8203 76.5507 22.0744 76.5495 20.7381V18.4143C76.5507 17.078 76.8872 16.332 77.3112 15.9149V16.9102H80.3581V15.8952C80.3628 15.8997 80.3682 15.9036 80.373 15.9083C80.8556 16.3909 81.1207 17.2779 81.1198 18.4071V20.7464C81.1207 21.8744 80.8556 22.7614 80.373 23.244C80.3682 23.2488 80.3628 23.2527 80.3581 23.2571V22.0898H77.3112ZM81.1198 32.9339C81.1207 34.0619 80.8556 34.9489 80.373 35.4315C80.0219 35.7826 79.5214 35.9531 78.843 35.9531C78.8418 35.9531 78.8406 35.9531 78.8397 35.9531C78.2741 35.9525 76.5522 35.9513 76.5495 32.9256V30.6018C76.5507 29.2655 76.8872 28.5195 77.3112 28.1024V29.0977H80.3581V28.0827C80.3628 28.0872 80.3682 28.0911 80.373 28.0958C80.8556 28.5784 81.121 29.4654 81.1198 30.5946V32.9339ZM64.6747 0C64.6729 0 64.6711 0 64.6694 0C61.3821 0.00267791 59.3379 2.32919 59.3347 6.07322V8.40063C59.3364 10.615 60.0529 12.3333 61.3184 13.3682C60.0529 14.4033 59.3364 16.122 59.3347 18.3369V20.6643C59.3364 22.8786 60.0529 24.597 61.3184 25.6318C60.0529 26.667 59.3364 28.3856 59.3347 30.6006V32.928C59.3379 36.6708 61.3821 38.9973 64.6694 39H64.6747C66.1601 39 67.4345 38.5111 68.3595 37.5861C69.4334 36.5119 70.0005 34.9025 69.9987 32.9327V30.5958C70.0005 28.6252 69.4334 27.0154 68.3595 25.9413C68.25 25.8321 68.1352 25.7291 68.0162 25.6318C68.1352 25.5348 68.25 25.4319 68.3595 25.3224C69.4334 24.2482 70.0005 22.6388 69.9987 20.6691V18.3324C70.0005 16.3615 69.4334 14.7521 68.3595 13.6779C68.25 13.5684 68.1352 13.4655 68.0162 13.3685C68.1352 13.2712 68.25 13.1682 68.3595 13.0587C69.4334 11.9846 70.0005 10.3751 69.9987 8.40569V6.06846C70.0005 4.09781 69.4334 2.48808 68.3595 1.41394C67.4345 0.488869 66.1604 0 64.6747 0ZM62.3815 6.07441C62.3842 3.04866 64.1058 3.04747 64.6717 3.04688H64.675C65.3534 3.04688 65.8539 3.21737 66.2047 3.56847C66.6873 4.05109 66.9527 4.93808 66.9518 6.06727V8.40658C66.9527 9.53458 66.6873 10.4216 66.2047 10.9042C66.2002 10.9089 66.1949 10.9128 66.1901 10.9173V9.82617H63.1432V10.8976C62.7192 10.4805 62.3827 9.73453 62.3815 8.39825V6.07441ZM63.1432 22.0898V23.1613C62.7192 22.7441 62.3827 21.9982 62.3815 20.6619V18.3381C62.3827 17.0018 62.7192 16.2559 63.1432 15.8387V16.834H66.1901V15.8191C66.1949 15.8235 66.2002 15.8274 66.205 15.8321C66.6876 16.3148 66.9527 17.2018 66.9518 18.3309V20.6703C66.9527 21.7982 66.6876 22.6852 66.205 23.1679C66.2002 23.1726 66.1949 23.1765 66.1901 23.1809V22.0898H63.1432ZM66.9518 32.9339C66.9527 34.0619 66.6876 34.9489 66.205 35.4315C65.8539 35.7826 65.3534 35.9531 64.675 35.9531C64.6738 35.9531 64.6726 35.9531 64.6717 35.9531C64.1061 35.9525 62.3842 35.9513 62.3815 32.9256V30.6018C62.3827 29.2655 62.7192 28.5195 63.1432 28.1024V29.0977H66.1901V28.0827C66.1949 28.0872 66.2002 28.0911 66.205 28.0958C66.6876 28.5784 66.953 29.4654 66.9518 30.5946V32.9339Z" fill="black" fill-opacity="0.5"/>
</g>
<path d="M99.9557 127.66L96.2377 107.987C96.0825 107.172 95.5398 106.483 94.7814 106.145C94.0247 105.804 93.149 105.859 92.438 106.287L75.2922 116.622C74.2877 117.227 73.83 118.442 74.1836 119.558C74.5358 120.676 75.6078 121.403 76.7768 121.322L83.4737 120.855C77.0793 129.449 67.4547 132.976 56.4153 133.88V77.6003H61.9285C62.8175 78.2622 63.9104 78.6669 65.1037 78.6669C68.0559 78.6669 70.4504 76.2744 70.4504 73.3219C70.4504 70.3677 68.0559 67.9752 65.1037 67.9752C63.9084 67.9752 62.8153 68.3819 61.9263 69.0438H56.415V61.3144C59.5527 59.2283 61.6291 55.669 61.6291 51.6293C61.6294 45.218 56.4118 40 50.0002 40C43.5887 40 38.3706 45.218 38.3706 51.6293C38.3706 55.669 40.4473 59.2283 43.5847 61.3144V69.044H38.0737C37.1847 68.3822 36.0918 67.9755 34.8965 67.9755C31.9443 67.9755 29.5498 70.368 29.5498 73.3222C29.5498 76.2744 31.9443 78.6672 34.8965 78.6672C36.0899 78.6672 37.1827 78.2624 38.0718 77.6006H43.5847V133.88C32.5455 132.976 22.9209 129.449 16.5268 120.855L23.2237 121.322C24.3925 121.403 25.4647 120.676 25.8166 119.558C26.1703 118.442 25.7128 117.228 24.7083 116.623L7.56228 106.287C6.85105 105.859 5.97553 105.805 5.21887 106.145C4.46049 106.483 3.91774 107.172 3.76253 107.987L0.0443181 127.66C-0.173273 128.811 0.426208 129.961 1.49476 130.442C2.56332 130.924 3.82098 130.61 4.53982 129.683L8.53972 124.524C16.36 137.188 28.6569 147.79 42.8396 150.542L48.2067 155.909C49.1979 156.898 50.8014 156.898 51.7908 155.909L57.1579 150.542C71.3407 147.792 83.6393 137.188 91.4598 124.524L95.4597 129.683C96.1785 130.61 97.4362 130.924 98.5045 130.442C99.5738 129.961 100.173 128.811 99.9557 127.66ZM50.0002 48.5561C51.6948 48.5561 53.0733 49.9348 53.0733 51.6293C53.0733 53.3239 51.6948 54.7026 50.0002 54.7026C48.3057 54.7026 46.9267 53.3239 46.9267 51.6293C46.9269 49.9348 48.3057 48.5561 50.0002 48.5561Z" fill="black" fill-opacity="0.5"/>
<defs>
<clipPath id="clip0">
<rect width="39" height="39" fill="white" transform="translate(17)"/>
</clipPath>
</defs>
</svg>
