<?xml version="1.0"?>
<svg xmlns="http://www.w3.org/2000/svg" xmlns:xlink="http://www.w3.org/1999/xlink" xmlns:svgjs="http://svgjs.com/svgjs" version="1.1" width="512" height="512" x="0" y="0" viewBox="0 0 512.00005 512" style="enable-background:new 0 0 512 512" xml:space="preserve" class=""><g transform="matrix(1,0,0,1,-1.1368683772161603e-13,0)"><path xmlns="http://www.w3.org/2000/svg" d="m70.105469 0c-.023438 0-.046875 0-.070313 0-43.15625.0351562-69.9921872 30.578125-70.035156 79.730469v30.554687c.0234375 29.070313 9.429688 51.628906 26.042969 65.214844-16.613281 13.589844-26.0195315 36.152344-26.042969 65.230469v30.554687c.0234375 29.070313 9.429688 51.628906 26.042969 65.214844-16.613281 13.589844-26.0195315 36.152344-26.042969 65.230469v30.554687c.0429688 49.136719 26.878906 79.679688 70.035156 79.714844h.070313c19.5 0 36.230469-6.417969 48.375-18.5625 14.097656-14.101562 21.542969-35.230469 21.519531-61.089844v-30.679687c.023438-25.871094-7.421875-47.003907-21.519531-61.105469-1.4375-1.433594-2.945313-2.785156-4.507813-4.0625 1.5625-1.273438 3.070313-2.625 4.507813-4.0625 14.097656-14.101562 21.542969-35.230469 21.519531-61.089844v-30.675781c.023438-25.875-7.421875-47.003906-21.519531-61.105469-1.4375-1.4375-2.945313-2.789062-4.507813-4.0625 1.5625-1.277344 3.070313-2.628906 4.507813-4.066406 14.097656-14.101562 21.542969-35.230469 21.519531-61.085938v-30.683593c.023438-25.871094-7.421875-47.003907-21.519531-61.105469-12.144531-12.144531-28.871094-18.5625-48.375-18.5625zm-30.105469 79.746094c.035156-39.722656 22.636719-39.738282 30.066406-39.746094h.042969c8.90625 0 15.476563 2.238281 20.082031 6.847656 6.335938 6.335938 9.820313 17.980469 9.808594 32.804688v30.710937c.011719 14.808594-3.472656 26.453125-9.808594 32.789063-.058594.0625-.128906.113281-.191406.171875v-14.324219h-40v14.066406c-5.566406-5.476562-9.984375-15.269531-10-32.8125zm10 210.253906v14.066406c-5.566406-5.476562-9.984375-15.269531-10-32.8125v-30.507812c.015625-17.542969 4.433594-27.335938 10-32.8125v13.066406h40v-13.324219c.0625.0625.132812.109375.195312.171875 6.335938 6.335938 9.816407 17.980469 9.804688 32.804688v30.710937c.011719 14.808594-3.46875 26.453125-9.804688 32.789063-.0625.0625-.132812.113281-.195312.171875v-14.324219zm50 142.363281c.011719 14.808594-3.46875 26.453125-9.804688 32.789063-4.609374 4.609375-11.179687 6.847656-20.085937 6.847656-.015625 0-.03125 0-.042969 0-7.429687-.007812-30.03125-.023438-30.066406-39.746094v-30.507812c.015625-17.542969 4.433594-27.335938 10-32.8125v13.066406h40v-13.324219c.0625.058594.132812.109375.195312.171875 6.335938 6.335938 9.816407 17.980469 9.804688 32.804688zm412-322.015625v-30.679687c.023438-25.871094-7.421875-47.003907-21.519531-61.105469-12.144531-12.144531-28.871094-18.5625-48.375-18.5625-.023438 0-.046875 0-.070313 0-43.15625.0351562-69.992187 30.578125-70.035156 79.730469v30.554687c.023438 29.433594 9.671875 52.1875 26.675781 65.714844-17.003906 13.53125-26.652343 36.285156-26.675781 65.730469v30.554687c.023438 28.722656 9.21875 51.078125 25.464844 64.714844-16.246094 13.636719-25.441406 35.996094-25.464844 64.730469v30.554687c.042969 49.136719 26.878906 79.679688 70.035156 79.714844h.070313c19.5 0 36.230469-6.417969 48.375-18.5625 14.097656-14.101562 21.542969-35.230469 21.519531-61.089844v-30.679687c.023438-25.871094-7.421875-47.003907-21.519531-61.105469-1.253907-1.253906-2.570313-2.429688-3.921875-3.5625 1.351562-1.128906 2.667968-2.308594 3.921875-3.5625 14.097656-14.101562 21.542969-35.230469 21.519531-61.089844v-30.675781c.023438-25.875-7.421875-47.003906-21.519531-61.105469-1.628907-1.628906-3.34375-3.144531-5.132813-4.5625 1.789063-1.421875 3.503906-2.9375 5.132813-4.566406 14.097656-14.101562 21.542969-35.234375 21.519531-61.089844zm-100-30.601562c.035156-39.722656 22.636719-39.738282 30.066406-39.746094h.042969c8.90625 0 15.476563 2.238281 20.082031 6.847656 6.335938 6.335938 9.820313 17.980469 9.808594 32.804688v30.710937c.011719 14.808594-3.472656 26.453125-9.808594 32.789063-.058594.0625-.128906.113281-.191406.171875v-13.324219h-40v13.066406c-5.566406-5.476562-9.984375-15.269531-10-32.8125zm10 210.253906v15.066406c-5.566406-5.476562-9.984375-15.269531-10-32.8125v-30.507812c.015625-17.542969 4.433594-27.335938 10-32.8125v13.066406h40v-13.324219c.0625.058594.132812.109375.195312.171875 6.335938 6.335938 9.816407 17.980469 9.804688 32.804688v30.710937c.011719 14.808594-3.46875 26.453125-9.804688 32.789063-.0625.0625-.132812.113281-.195312.171875v-15.324219zm50 142.363281c.011719 14.808594-3.46875 26.453125-9.804688 32.789063-4.609374 4.609375-11.179687 6.847656-20.085937 6.847656-.015625 0-.03125 0-.042969 0-7.425781-.007812-30.03125-.023438-30.066406-39.746094v-30.507812c.015625-17.542969 4.433594-27.335938 10-32.8125v13.066406h40v-13.324219c.0625.058594.132812.109375.195312.171875 6.335938 6.335938 9.820313 17.980469 9.804688 32.804688zm-215.894531-432.363281c-.023438 0-.046875 0-.070313 0-43.15625.0351562-69.992187 30.578125-70.035156 79.730469v30.554687c.023438 29.070313 9.429688 51.628906 26.042969 65.214844-16.613281 13.589844-26.019531 36.152344-26.042969 65.230469v30.554687c.023438 29.070313 9.429688 51.628906 26.042969 65.214844-16.613281 13.589844-26.019531 36.152344-26.042969 65.230469v30.554687c.042969 49.136719 26.878906 79.679688 70.035156 79.714844h.070313c19.5 0 36.230469-6.417969 48.375-18.5625 14.097656-14.101562 21.542969-35.230469 21.519531-61.089844v-30.679687c.023438-25.871094-7.421875-47.003907-21.519531-61.105469-1.4375-1.433594-2.945313-2.785156-4.507813-4.0625 1.5625-1.273438 3.070313-2.625 4.507813-4.0625 14.097656-14.101562 21.542969-35.230469 21.519531-61.089844v-30.675781c.023438-25.875-7.421875-47.003906-21.519531-61.105469-1.4375-1.4375-2.945313-2.789062-4.507813-4.0625 1.5625-1.277344 3.070313-2.628906 4.507813-4.066406 14.097656-14.101562 21.542969-35.230469 21.519531-61.085938v-30.683593c.023438-25.871094-7.421875-47.003907-21.519531-61.105469-12.144531-12.144531-28.871094-18.5625-48.375-18.5625zm-30.105469 79.746094c.035156-39.722656 22.636719-39.738282 30.066406-39.746094h.042969c8.90625 0 15.476563 2.238281 20.082031 6.847656 6.335938 6.335938 9.820313 17.980469 9.808594 32.804688v30.710937c.011719 14.808594-3.472656 26.453125-9.808594 32.789063-.058594.0625-.128906.113281-.191406.171875v-14.324219h-40v14.066406c-5.566406-5.476562-9.984375-15.269531-10-32.8125zm10 210.253906v14.066406c-5.566406-5.476562-9.984375-15.269531-10-32.8125v-30.507812c.015625-17.542969 4.433594-27.335938 10-32.8125v13.066406h40v-13.324219c.0625.058594.132812.109375.195312.171875 6.335938 6.335938 9.816407 17.980469 9.804688 32.804688v30.710937c.011719 14.808594-3.46875 26.453125-9.804688 32.789063-.0625.0625-.132812.113281-.195312.171875v-14.324219zm50 142.363281c.011719 14.808594-3.46875 26.453125-9.804688 32.789063-4.609374 4.609375-11.179687 6.847656-20.085937 6.847656-.015625 0-.03125 0-.042969 0-7.425781-.007812-30.03125-.023438-30.066406-39.746094v-30.507812c.015625-17.542969 4.433594-27.335938 10-32.8125v13.066406h40v-13.324219c.0625.058594.132812.109375.195312.171875 6.335938 6.335938 9.820313 17.980469 9.804688 32.804688zm0 0" fill="#000000" data-original="#000000" style="" class=""/></g></svg>
