<?xml version="1.0" encoding="iso-8859-1"?>
<!-- Generator: Adobe Illustrator 19.0.0, SVG Export Plug-In . SVG Version: 6.00 Build 0)  -->
<svg xmlns="http://www.w3.org/2000/svg" xmlns:xlink="http://www.w3.org/1999/xlink" version="1.1" id="Capa_1" x="0px" y="0px" viewBox="0 0 512 512" style="enable-background:new 0 0 512 512;" xml:space="preserve" width="512" height="512">
<g>
	<path style="fill:#D19A6E;" d="M256,512c9.121,0,16.516-7.394,16.516-16.516v-82.581h-33.032v82.581   C239.484,504.606,246.879,512,256,512z"/>
	<path style="fill:#C38C66;" d="M239.484,453.455c5.451,0.45,10.949,0.738,16.516,0.738s11.065-0.288,16.516-0.738v-40.552h-33.032   V453.455z"/>
	<rect x="247.742" y="123.871" style="fill:#C38C66;" width="16.516" height="264.258"/>
	<path style="fill:#D19A6E;" d="M264.258,173.419h-16.516c-4.561,0-8.258,3.697-8.258,8.258v148.645   c0,4.561,3.697,8.258,8.258,8.258h16.516c4.561,0,8.258-3.697,8.258-8.258V181.677   C272.516,177.117,268.819,173.419,264.258,173.419z"/>
	<path style="fill:#C38C66;" d="M239.484,192.101v127.798c5.288,1.364,10.802,2.165,16.516,2.165c5.714,0,11.228-0.801,16.516-2.165   V192.101c-5.288-1.364-10.802-2.165-16.516-2.165C250.286,189.935,244.772,190.737,239.484,192.101z"/>
	<circle style="fill:#D19A6E;" cx="256" cy="119.742" r="20.645"/>
	<path style="fill:#D19A6E;" d="M256,0c-9.121,0-16.516,7.394-16.516,16.516v82.581h33.032V16.516C272.516,7.394,265.121,0,256,0z"/>
	<path style="fill:#C38C66;" d="M272.516,58.545c-5.451-0.45-10.949-0.738-16.516-0.738s-11.065,0.288-16.516,0.738v40.552h33.032   V58.545z"/>
	<circle style="fill:#D19A6E;" cx="256" cy="392.258" r="20.645"/>
	<circle style="fill:#FFE07D;" cx="256" cy="256" r="16.516"/>
	<path style="fill:#C38C66;" d="M256,123.871c6.723,0,13.37,0.674,19.824,1.643c0.537-1.84,0.822-3.758,0.822-5.772   c0-11.402-9.243-20.645-20.645-20.645s-20.645,9.243-20.645,20.645c0,2.014,0.278,3.936,0.816,5.776   C242.624,124.549,249.277,123.871,256,123.871z"/>
	<path style="fill:#C38C66;" d="M256,388.129c-6.723,0-13.37-0.682-19.824-1.651c-0.537,1.84-0.822,3.766-0.822,5.78   c0,11.402,9.243,20.645,20.645,20.645s20.645-9.243,20.645-20.645c0-2.014-0.278-3.924-0.816-5.764   C269.376,387.463,262.723,388.129,256,388.129z"/>
	<path style="fill:#D19A6E;" d="M34.297,128c-4.561,7.899-1.855,18,6.045,22.561l71.517,41.29l16.516-28.607l-71.517-41.29   C48.959,117.394,38.858,120.101,34.297,128z"/>
	<path style="fill:#C38C66;" d="M93.257,142.969c-3.115,4.496-6.114,9.113-8.898,13.934c-2.784,4.822-5.283,9.727-7.619,14.673   l35.119,20.276l16.516-28.607L93.257,142.969z"/>
	
		<rect x="247.742" y="123.871" transform="matrix(-0.5 0.866 -0.866 -0.5 605.7025 162.2974)" style="fill:#C38C66;" width="16.516" height="264.258"/>
	<path style="fill:#D19A6E;" d="M323.388,304.442l8.258-14.303c2.28-3.95,0.927-9-3.023-11.281l-128.731-74.323   c-3.95-2.28-9-0.927-11.281,3.023l-8.258,14.303c-2.28,3.95-0.927,9,3.023,11.281l128.731,74.323   C316.057,309.745,321.108,308.392,323.388,304.442z"/>
	<path style="fill:#C38C66;" d="M319.596,273.646L208.92,209.747c-3.825,3.897-7.276,8.272-10.133,13.221s-4.92,10.125-6.383,15.386   l110.677,63.899c3.825-3.897,7.276-8.272,10.133-13.221C316.071,284.084,318.134,278.908,319.596,273.646z"/>
	<circle style="fill:#D19A6E;" cx="374.003" cy="324.129" r="20.645"/>
	<path style="fill:#D19A6E;" d="M477.703,384c4.561-7.899,1.855-18-6.045-22.561l-71.517-41.29l-16.516,28.607l71.517,41.29   C463.041,394.606,473.142,391.899,477.703,384z"/>
	<path style="fill:#C38C66;" d="M418.743,369.031c3.115-4.496,6.114-9.113,8.898-13.934c2.784-4.822,5.283-9.727,7.619-14.673   l-35.119-20.276l-16.516,28.607L418.743,369.031z"/>
	<circle style="fill:#D19A6E;" cx="137.997" cy="187.871" r="20.645"/>
	<circle style="fill:#FFE07D;" cx="256" cy="256" r="16.516"/>
	<path style="fill:#C38C66;" d="M370.427,322.064c-3.362,5.823-7.275,11.243-11.341,16.347c1.325,1.385,2.85,2.59,4.594,3.596   c9.875,5.701,22.501,2.318,28.202-7.557s2.318-22.501-7.557-28.202c-1.744-1.007-3.542-1.721-5.404-2.175   C376.534,310.147,373.789,316.242,370.427,322.064z"/>
	<path style="fill:#C38C66;" d="M141.573,189.936c3.362-5.823,7.275-11.239,11.341-16.343c-1.325-1.385-2.85-2.594-4.594-3.6   c-9.874-5.701-22.501-2.318-28.202,7.557c-5.701,9.875-2.318,22.501,7.557,28.202c1.744,1.007,3.542,1.721,5.404,2.175   C135.466,201.853,138.211,195.758,141.573,189.936z"/>
	<path style="fill:#D19A6E;" d="M477.703,128c4.561,7.899,1.855,18-6.045,22.561l-71.517,41.29l-16.516-28.607l71.517-41.29   C463.041,117.394,473.142,120.101,477.703,128z"/>
	<path style="fill:#C38C66;" d="M418.743,142.969c3.115,4.496,6.114,9.113,8.898,13.934c2.784,4.822,5.283,9.727,7.619,14.673   l-35.119,20.276l-16.516-28.607L418.743,142.969z"/>
	
		<rect x="247.742" y="123.871" transform="matrix(0.5 0.866 -0.866 0.5 349.7026 -93.7025)" style="fill:#C38C66;" width="16.516" height="264.258"/>
	<path style="fill:#D19A6E;" d="M188.612,304.442l-8.258-14.303c-2.28-3.95-0.927-9,3.023-11.281l128.731-74.323   c3.95-2.28,9-0.927,11.281,3.023l8.258,14.303c2.28,3.95,0.927,9-3.023,11.281l-128.731,74.323   C195.943,309.745,190.892,308.392,188.612,304.442z"/>
	<path style="fill:#C38C66;" d="M192.404,273.646l110.677-63.899c3.825,3.897,7.276,8.272,10.133,13.221s4.92,10.125,6.383,15.386   L208.92,302.253c-3.825-3.897-7.276-8.272-10.133-13.221C195.929,284.084,193.866,278.908,192.404,273.646z"/>
	<circle style="fill:#D19A6E;" cx="137.997" cy="324.129" r="20.645"/>
	<path style="fill:#D19A6E;" d="M34.297,384c-4.561-7.899-1.855-18,6.045-22.561l71.517-41.29l16.516,28.607l-71.517,41.29   C48.959,394.606,38.858,391.899,34.297,384z"/>
	<path style="fill:#C38C66;" d="M93.257,369.031c-3.115-4.496-6.114-9.113-8.898-13.934c-2.784-4.822-5.283-9.727-7.619-14.673   l35.119-20.276l16.516,28.607L93.257,369.031z"/>
	<circle style="fill:#D19A6E;" cx="374.003" cy="187.871" r="20.645"/>
	<path style="fill:#C38C66;" d="M141.573,322.064c3.362,5.823,7.267,11.249,11.333,16.353c-1.325,1.385-2.842,2.584-4.586,3.591   c-9.875,5.701-22.501,2.318-28.202-7.557c-5.701-9.875-2.318-22.501,7.557-28.202c1.744-1.007,3.558-1.721,5.42-2.175   C135.482,310.147,138.211,316.242,141.573,322.064z"/>
	<path style="fill:#C38C66;" d="M370.427,189.936c-3.362-5.823-7.275-11.243-11.341-16.347c1.325-1.385,2.85-2.59,4.594-3.596   c9.874-5.701,22.501-2.318,28.202,7.557c5.701,9.875,2.318,22.501-7.557,28.202c-1.744,1.007-3.558,1.729-5.42,2.183   C376.518,201.86,373.789,195.758,370.427,189.936z"/>
	<path style="fill:#E2A975;" d="M256,74.323c-100.338,0-181.677,81.34-181.677,181.677S155.662,437.677,256,437.677   S437.677,356.338,437.677,256S356.338,74.323,256,74.323z M256,404.645c-82.094,0-148.645-66.551-148.645-148.645   c0-82.095,66.551-148.645,148.645-148.645S404.645,173.905,404.645,256C404.645,338.094,338.094,404.645,256,404.645z"/>
	<path style="fill:#D19A6E;" d="M420.512,241.174c-6.893-78.838-70.847-142.793-149.686-149.686   c-52.912-4.626-101.075,15.789-134.241,50.651c-3.635,3.821-9.887-0.741-7.393-5.388c4.649-8.664,10.047-17.007,16.015-24.743   c-46.433,35.827-75.145,93.684-70.367,157.888c6.597,88.646,78.618,160.667,167.263,167.263   c64.204,4.778,122.069-23.938,157.896-70.371c-7.736,5.969-16.088,11.371-24.753,16.02c-4.647,2.494-9.21-3.758-5.388-7.393   C404.722,342.25,425.138,294.087,420.512,241.174z M256,107.355c82.094,0,148.645,66.55,148.645,148.645   c0,82.094-66.551,148.645-148.645,148.645S107.355,338.094,107.355,256C107.355,173.905,173.906,107.355,256,107.355z"/>
	<circle style="fill:#E2A975;" cx="256" cy="256" r="49.548"/>
	<path style="fill:#D19A6E;" d="M264.258,297.29c-27.365,0-49.548-22.183-49.548-49.548c0-11.577,3.949-22.207,10.602-30.642   c-11.504,9.074-18.86,23.112-18.86,38.9c0,27.365,22.183,49.548,49.548,49.548c15.788,0,29.973-7.515,39.047-19.019   C286.613,293.182,275.835,297.29,264.258,297.29z"/>
	<circle style="fill:#FFE07D;" cx="256" cy="256" r="16.516"/>
</g>















</svg>
