<svg height="480pt" viewBox="0 0 480 480" width="480pt" xmlns="http://www.w3.org/2000/svg"><path d="m240 272c17.671875 0 32-14.328125 32-32s-14.328125-32-32-32-32 14.328125-32 32 14.328125 32 32 32zm0-48c8.835938 0 16 7.164062 16 16s-7.164062 16-16 16-16-7.164062-16-16 7.164062-16 16-16zm0 0"/><path d="m24 264h33.71875c4.140625 32.015625 16.707031 62.359375 36.417969 87.929688l-35.792969 35.78125c-9.375 9.375-9.375 24.570312 0 33.945312s24.570312 9.375 33.945312 0l35.78125-35.792969c25.570313 19.710938 55.914063 32.277344 87.929688 36.417969v33.71875c0 13.253906 10.746094 24 24 24s24-10.746094 24-24v-33.71875c32.015625-4.140625 62.359375-16.707031 87.929688-36.417969l35.78125 35.792969c9.375 9.375 24.570312 9.375 33.945312 0s9.375-24.570312 0-33.945312l-35.792969-35.78125c19.710938-25.570313 32.277344-55.914063 36.417969-87.929688h33.71875c13.253906 0 24-10.746094 24-24s-10.746094-24-24-24h-33.71875c-4.140625-32.015625-16.707031-62.359375-36.417969-87.929688l35.792969-35.78125c9.375-9.375 9.375-24.570312 0-33.945312-9.496094-9.070312-24.445312-9.070312-33.945312 0l-35.78125 35.792969c-25.570313-19.710938-55.914063-32.277344-87.929688-36.417969v-33.71875c0-13.253906-10.746094-24-24-24s-24 10.746094-24 24v33.71875c-32.015625 4.140625-62.359375 16.707031-87.929688 36.417969l-35.78125-35.792969c-9.5-9.070312-24.449218-9.070312-33.945312 0-9.375 9.375-9.375 24.570312 0 33.945312l35.792969 35.78125c-19.710938 25.570313-32.277344 55.914063-36.417969 87.929688h-33.71875c-13.253906 0-24 10.746094-24 24s10.746094 24 24 24zm116.296875-52.878906c2.144531-7.371094 5.09375-14.480469 8.800781-21.199219.421875-.800781.855469-1.539063 1.292969-2.296875.441406-.761719.898437-1.328125 1.3125-2.007812l25.183594 25.191406 4.21875 4.207031-.433594.984375h-41.601563c.1875-.800781.289063-1.601562.488282-2.335938.203125-.734374.488281-1.664062.738281-2.542968zm49.597656-62.050782c6.722657-3.703124 13.832031-6.65625 21.203125-8.796874.847656-.25 1.6875-.488282 2.542969-.714844.855469-.222656 1.597656-.300782 2.335937-.488282v41.601563l-.984374.40625-29.390626-29.398437c.679688-.414063 1.320313-.910157 2.007813-1.3125.6875-.398438 1.542969-.863282 2.3125-1.296876zm78.960938-8.796874c7.371093 2.140624 14.480469 5.09375 21.199219 8.796874.800781.433594 1.539062.859376 2.296874 1.296876.761719.441406 1.328126.898437 2.007813 1.3125l-29.398437 29.398437-.960938-.40625v-41.601563c.800781.1875 1.601562.289063 2.335938.488282.734374.203125 1.664062.488281 2.542968.738281zm70.824219 70.824218c.25.847656.488281 1.6875.710937 2.542969.226563.855469.304687 1.597656.488281 2.335937h-41.597656l-.410156-.984374 29.449218-29.390626c.414063.679688.910157 1.320313 1.3125 2.007813.398438.6875.863282 1.527344 1.296876 2.292969 3.695312 6.730468 6.640624 13.84375 8.773437 21.21875zm68.105468 20.902344v.273438c.125 2.628906.199219 5.199218.199219 7.726562s-.074219 5.097656-.199219 7.726562v.273438h-48.105468c.214843-2.777344.320312-5.40625.320312-8s-.105469-5.222656-.320312-8zm-68.082031 36.878906c-2.144531 7.371094-5.09375 14.480469-8.800781 21.199219-.429688.800781-.855469 1.539063-1.292969 2.296875-.441406.761719-.898437 1.328125-1.3125 2.007812l-29.402344-29.398437.433594-.984375h41.601563c-.1875.800781-.289063 1.601562-.488282 2.335938-.203125.734374-.488281 1.664062-.738281 2.542968zm-49.597656 62.050782c-6.722657 3.703124-13.832031 6.65625-21.203125 8.796874-.847656.25-1.6875.488282-2.542969.714844-.855469.222656-1.597656.300782-2.335937.488282v-41.601563l.984374-.40625 29.390626 29.398437c-.679688.414063-1.320313.910157-2.007813 1.3125-.6875.398438-1.542969.863282-2.3125 1.296876zm-57.90625 76.871093h-.175781v-48.121093c5.324218.433593 10.675781.433593 16 0v48.105468h-.175782c-5.21875.269532-10.449218.273438-15.671875.015625zm-21.078125-68.097656c-7.371094-2.144531-14.480469-5.09375-21.199219-8.800781-.800781-.429688-1.539063-.855469-2.296875-1.292969-.761719-.441406-1.328125-.898437-2.007812-1.3125l29.398437-29.402344.984375.410157v41.597656c-.800781-.183594-1.601562-.285156-2.335938-.488282-.734374-.199218-1.664062-.460937-2.542968-.710937zm-70.824219-70.824219c-.25-.847656-.488281-1.6875-.710937-2.542968-.226563-.855469-.304688-1.601563-.488282-2.335938h41.597656l.410157.984375-29.425781 29.414063c-.414063-.679688-.910157-1.320313-1.3125-2.007813-.398438-.6875-.871094-1.527344-1.296876-2.292969-3.695312-6.730468-6.640624-13.84375-8.773437-21.21875zm91.878906-196.679687c5.210938-.261719 10.4375-.261719 15.648438 0h.175781v48.089843c-5.324219-.441406-10.675781-.441406-16 0v-48.074218zm97.671875 88.503906c-3.292968-3.734375-6.816406-7.257813-10.550781-10.550781-.128906-.121094-.242187-.265625-.375-.382813l33.941406-33.945312c.945313.855469 1.90625 1.695312 2.832031 2.582031 2.015626 1.917969 3.980469 3.882812 5.898438 5.898438.886719.925781 1.726562 1.886718 2.582031 2.832031l-33.945312 33.941406c-.117188-.132813-.261719-.277344-.382813-.375zm-22.457031.59375c2.007813 1.726563 4.136719 3.34375 6.007813 5.214844l.089843.089843c1.871094 1.871094 3.488281 4 5.214844 6.007813l-28.144531 28.144531c-3.277344-4.234375-7.078125-8.035156-11.3125-11.3125zm36.203125 70.703125c0 .144531.039062.3125.054688.464844.222656 2.640625.351562 5.136718.351562 7.535156s-.128906 4.894531-.351562 7.535156c0 .152344-.039063.320313-.054688.464844h-40.097656c.671875-5.3125.671875-10.6875 0-16zm12.101562 129.601562c-.925781.886719-1.886718 1.726563-2.832031 2.582032l-33.941406-33.945313c.132813-.117187.246094-.261719.375-.382812 3.734375-3.292969 7.257813-6.816407 10.550781-10.550781.121094-.128907.265625-.242188.382813-.375l33.945312 33.941406c-.855469.945312-1.695312 1.90625-2.582031 2.832031-1.910156 2.011719-3.875 3.976563-5.898438 5.898437zm-42.207031-48.195312-.089843.089844c-1.871094 1.871094-4 3.488281-6.007813 5.214844l-28.144531-28.152344c4.234375-3.277344 8.035156-7.078125 11.3125-11.3125l28.144531 28.144531c-1.726563 2.007813-3.34375 4.136719-5.214844 6.007813zm-163.335937 5.898438c3.292968 3.734374 6.816406 7.257812 10.550781 10.550781.128906.121093.242187.265625.375.382812l-33.941406 33.945313c-.945313-.855469-1.90625-1.695313-2.832031-2.582032-2.015626-1.910156-3.980469-3.875-5.898438-5.898437-.886719-.925781-1.726562-1.886719-2.582031-2.832031l33.945312-33.941406c.117188.125.261719.269531.382813.367187zm22.457031-.59375c-2.007813-1.726563-4.136719-3.34375-6.007813-5.214844l-.089843-.089844c-1.871094-1.871094-3.488281-4-5.214844-6.007812l28.144531-28.140626c3.277344 4.230469 7.078125 8.03125 11.3125 11.308594zm59.390625-15.214844c5.3125.671875 10.6875.671875 16 0v40.113281h-.214844c-5.179687.488281-10.390625.488281-15.570312 0h-.214844zm16-126.992188c-5.3125-.671875-10.6875-.671875-16 0v-40.113281h.214844c5.179687-.488281 10.390625-.488281 15.570312 0h.214844zm-30.832031 21.265625c2.898437-1.5625 5.953125-2.816406 9.113281-3.746093 8.945312-2.679688 18.476562-2.679688 27.421875 0 3.160156.929687 6.214844 2.183593 9.113281 3.746093 8.207032 4.4375 14.945313 11.175781 19.382813 19.382813 1.5625 2.898437 2.816406 5.953125 3.746093 9.113281 2.6875 8.941406 2.6875 18.480469 0 27.421875-.929687 3.160156-2.183593 6.214844-3.746093 9.113281-4.4375 8.207031-11.175781 14.945313-19.382813 19.382813-2.898437 1.5625-5.953125 2.816406-9.113281 3.746094-8.945313 2.679687-18.476563 2.679687-27.421875 0-3.160156-.929688-6.214844-2.183594-9.113281-3.746094-8.207031-4.4375-14.945313-11.175782-19.382813-19.382813-1.5625-2.898437-2.816406-5.953125-3.746094-9.113281-2.6875-8.941406-2.6875-18.480469 0-27.421875.929688-3.160156 2.183594-6.214844 3.746094-9.113281 4.4375-8.207032 11.175782-14.945313 19.382813-19.382813zm-27.726563 2.984375-28.144531-28.144531c1.726563-2.007813 3.34375-4.136719 5.214844-6.007813l.089843-.089843c1.871094-1.871094 4-3.488281 6.007813-5.214844l28.144531 28.144531c-4.230468 3.28125-8.03125 7.082032-11.3125 11.3125zm-65.113281-82.355468c.917969-.878907 1.871094-1.710938 2.808594-2.558594l33.941406 33.945312c-.132813.117188-.246094.261719-.375.382813-3.734375 3.292969-7.257813 6.816406-10.550781 10.550781-.121094.128906-.265625.242188-.382813.378906l-33.945312-33.945312c.847656-.945313 1.6875-1.886719 2.558593-2.808594 1.9375-2.042969 3.917969-4.023438 5.945313-5.945312zm52.175781 129.601562h-40.097656c0-.144531 0-.3125-.054688-.464844-.222656-2.640625-.351562-5.136718-.351562-7.535156s.128906-4.894531.351562-7.535156c0-.152344 0-.320313.054688-.464844h40.097656c-.671875 5.3125-.671875 10.6875 0 16zm-56.503906-8c0 2.59375.105469 5.222656.320312 8h-48.105468v-.273438c-.144532-2.628906-.214844-5.199218-.214844-7.726562s.070312-5.097656.199219-7.726562v-.273438h48.121093c-.214843 2.777344-.320312 5.40625-.320312 8zm2.542969 24 .050781.191406c.679688 3.304688 1.542969 6.570313 2.503906 9.808594.222656.761719.453125 1.519531.703125 2.273438 2.054688 6.484374 4.660157 12.78125 7.792969 18.824218.367188.710938.734375 1.414063 1.117188 2.117188 1.601562 2.960937 3.304687 5.875 5.160156 8.695312l.105468.167969-34.519531 34.523437c-16.863281-22.453124-27.773437-48.804687-31.722656-76.601562zm-41.597657 146.34375c-3.128906 3.125-8.195312 3.125-11.320312 0s-3.125-8.195312 0-11.320312l34.710938-34.710938c.945312 1.03125 2 1.960938 2.96875 2.96875 1.757812 1.832031 3.554687 3.628906 5.382812 5.382812 1.007812.96875 1.9375 2.023438 2.96875 2.96875zm92.976563-70.34375.167969.105469c2.820312 1.855469 5.734375 3.550781 8.695312 5.160156.703125.382813 1.40625.75 2.117188 1.117187 6.042968 3.128907 12.339844 5.738282 18.824218 7.792969.753907.25 1.511719.480469 2.273438.703125 3.238281.960938 6.503906 1.824219 9.808594 2.503906l.191406.050782v48.796875c-27.796875-3.945313-54.148438-14.859375-76.601562-31.71875zm74.078125 116c0 4.417969-3.582031 8-8 8s-8-3.582031-8-8v-32.183594h.160156c2.65625.121094 5.265625.183594 7.839844.183594s5.183594-.0625 7.839844-.183594h.160156zm16-49.734375v-48.800781l.191406-.050782c3.304688-.679687 6.570313-1.542968 9.808594-2.503906.761719-.222656 1.519531-.453125 2.273438-.703125 6.484374-2.054687 12.78125-4.660156 18.824218-7.792969.710938-.367187 1.414063-.734374 2.117188-1.117187 2.960937-1.601563 5.875-3.304687 8.695312-5.160156l.167969-.105469 34.523437 34.519531c-22.453124 16.859375-48.804687 27.765625-76.601562 31.714844zm146.34375 4.078125c-1.5 1.503906-3.535156 2.347656-5.660156 2.347656-2.121094 0-4.160156-.84375-5.660156-2.347656l-34.710938-34.710938c1.03125-.945312 1.960938-2 2.96875-2.96875 1.832031-1.761718 3.628906-3.554687 5.382812-5.382812.96875-1.007812 2.023438-1.9375 2.96875-2.96875l34.710938 34.710938c1.503906 1.5 2.347656 3.539062 2.347656 5.660156 0 2.125-.84375 4.160156-2.347656 5.660156zm-35.800781-69.742188-34.542969-34.523437.105469-.167969c1.855469-2.820312 3.550781-5.734375 5.160156-8.695312.382813-.703125.75-1.40625 1.117187-2.117188 3.128907-6.042968 5.738282-12.339844 7.792969-18.824218.25-.753907.480469-1.511719.703125-2.273438.960938-3.238281 1.824219-6.503906 2.503906-9.808594l.074219-.191406h48.800781c-3.949218 27.796875-14.855468 54.148438-31.714843 76.601562zm81.457031-108.601562c4.417969 0 8 3.582031 8 8s-3.582031 8-8 8h-32.183594c.121094-2.710938.183594-5.367188.183594-8s-.0625-5.289062-.183594-8zm-98.542969-16-.050781-.191406c-.679688-3.304688-1.542969-6.570313-2.503906-9.808594-.222656-.761719-.453125-1.519531-.703125-2.273438-2.054688-6.484374-4.660157-12.78125-7.792969-18.824218-.367188-.710938-.734375-1.414063-1.117188-2.117188-1.601562-2.960937-3.304687-5.875-5.160156-8.695312l-.128906-.167969 34.519531-34.523437c16.871094 22.449218 27.789063 48.800781 31.746094 76.601562zm41.597657-146.34375c3.128906-3.125 8.195312-3.125 11.320312 0s3.125 8.195312 0 11.320312l-34.710938 34.710938c-.945312-1.03125-2-1.960938-2.96875-2.96875-1.757812-1.828125-3.554687-3.621094-5.382812-5.382812-1.007812-.96875-1.9375-2.023438-2.96875-2.96875zm-92.976563 70.34375-.167969-.105469c-2.820312-1.855469-5.734375-3.550781-8.695312-5.160156-.703125-.382813-1.40625-.75-2.117188-1.117187-6.042968-3.128907-12.339844-5.738282-18.824218-7.792969-.753907-.25-1.511719-.480469-2.273438-.703125-3.238281-.960938-6.503906-1.824219-9.808594-2.503906l-.191406-.074219v-48.800781c27.796875 3.949218 54.148438 14.863281 76.601562 31.722656zm-66.078125-124c4.417969 0 8 3.582031 8 8v32.183594c-5.398438-.246094-10.601562-.246094-16 0v-32.183594c0-4.417969 3.582031-8 8-8zm-24 57.734375v48.800781l-.191406.050782c-3.304688.679687-6.570313 1.542968-9.808594 2.503906-.761719.222656-1.519531.453125-2.273438.703125-6.484374 2.054687-12.78125 4.660156-18.824218 7.792969-.710938.367187-1.414063.734374-2.117188 1.117187-2.960937 1.601563-5.875 3.304687-8.695312 5.160156l-.167969.105469-34.523437-34.519531c22.453124-16.859375 48.804687-27.765625 76.601562-31.714844zm-140.679688-6.398437c2.121094 0 4.15625.839843 5.65625 2.335937l34.710938 34.710937c-1.023438.945313-1.953125 1.992188-2.953125 2.960938-1.847656 1.769531-3.644531 3.566406-5.421875 5.417969-.960938 1-2 1.917969-2.9375 2.933593l-33.742188-33.734374c-1.816406-1.761719-2.902343-4.144532-3.039062-6.671876-.136719-2.074218.613281-4.109374 2.0625-5.601562 1.496094-1.511719 3.535156-2.363281 5.664062-2.367188zm30.136719 72.078124 34.542969 34.507813-.105469.167969c-1.855469 2.820312-3.550781 5.734375-5.160156 8.695312-.382813.703125-.75 1.40625-1.117187 2.117188-3.128907 6.042968-5.738282 12.339844-7.792969 18.824218-.25.753907-.480469 1.511719-.703125 2.273438-.960938 3.238281-1.824219 6.503906-2.503906 9.808594l-.074219.191406h-48.800781c3.949218-27.796875 14.855468-54.148438 31.714843-76.601562zm-81.457031 92.585938h32.183594c-.121094 2.710938-.183594 5.367188-.183594 8s.0625 5.289062.183594 8h-32.183594c-4.417969 0-8-3.582031-8-8s3.582031-8 8-8zm0 0"/><path d="m176 96h16v16h-16zm0 0"/><path d="m280 96h16v16h-16zm0 0"/><path d="m176 368h16v16h-16zm0 0"/><path d="m280 368h16v16h-16zm0 0"/><path d="m368 184h16v16h-16zm0 0"/><path d="m368 280h16v16h-16zm0 0"/><path d="m96 184h16v16h-16zm0 0"/><path d="m96 280h16v16h-16zm0 0"/></svg>