<?xml version="1.0" standalone="no"?><svg xmlns="http://www.w3.org/2000/svg" viewBox="0 0 1440 320"><path fill="#ffffff" fill-opacity="1" d="M0,256L30,229.3C60,203,120,149,180,149.3C240,149,300,203,360,197.3C420,192,480,128,540,117.3C600,107,660,149,720,170.7C780,192,840,192,900,160C960,128,1020,64,1080,85.3C1140,107,1200,213,1260,256C1320,299,1380,277,1410,266.7L1440,256L1440,0L1410,0C1380,0,1320,0,1260,0C1200,0,1140,0,1080,0C1020,0,960,0,900,0C840,0,780,0,720,0C660,0,600,0,540,0C480,0,420,0,360,0C300,0,240,0,180,0C120,0,60,0,30,0L0,0Z"></path></svg>